<svg xmlns="http://www.w3.org/2000/svg" version="1.1" xmlns:xlink="http://www.w3.org/1999/xlink" xmlns:svgjs="http://svgjs.dev/svgjs" width="1500" height="1500" viewBox="0 0 1500 1500"><rect width="1500" height="1500" fill="#ffffff"></rect><g transform="matrix(0.6666666666666666,0,0,0.6666666666666666,249.39401242498747,662.0168080344491)"><svg viewBox="0 0 396 70" data-background-color="#ffe9d1" preserveAspectRatio="xMidYMid meet" height="265" width="1500" xmlns="http://www.w3.org/2000/svg" xmlns:xlink="http://www.w3.org/1999/xlink"><g id="tight-bounds" transform="matrix(1,0,0,1,0.2399710797049579,-0.1387352589327122)"><svg viewBox="0 0 395.52 70.27747051786541" height="70.27747051786541" width="395.52"><g><svg viewBox="0 0 547.0483617912139 97.2015956655254" height="70.27747051786541" width="395.52"><g transform="matrix(1,0,0,1,151.52836179121397,0.20583988779261375)"><svg viewBox="0 0 395.52 96.78991588994018" height="96.78991588994018" width="395.52"><g id="textblocktransform"><svg viewBox="0 0 395.52 96.78991588994018" height="96.78991588994018" width="395.52" id="textblock"><g><svg viewBox="0 0 395.52 96.78991588994018" height="96.78991588994018" width="395.52"><path d="M394.594 20.76C392.735 10.713 387.435 7.92 387.435 7.92 371.165-2.428 350.86-0.198 332.619 1.289 300.414 1.349 268.339 3.56 236.208 4.745 168.767 4.926 100.749 1.952 33.643 9.286 27.339 11.537-6.54 9.728 1.121 22.046 3.129 27.169 10.456 32.856 10.232 37.558 11.236 38.382 12.631 36.493 13.226 37.678 15.309 40.873 18.711 39.366 21.501 41.255 17.614 46.298 20.403 50.498 23.062 54.898 18.377 56.044 12.371 55.501 9.675 59.299 9.396 62.052 7.89 61.529 6.235 61.409 5.026 61.328 2.59 61.63 2.999 62.494 4.394 65.448-1.594 67.156 2.162 70.049-0.422 73.184 3.948 75.896 3.353 79.292 3.278 79.975 3.687 80.558 4.338 80.719 7.22 81.583 3.018 83.271 3.464 85.099 33.029 97.597 65.104 88.957 95.394 94.704 103.259 90.685 97.346 96.13 100.489 95.286 102.943 94.302 104.728 98.381 107.499 96.07 107.927 95.407 107.276 93.84 108.8 94.141 109.6 94.302 110.307 94.262 110.418 93.337 110.586 91.951 109.117 92.815 108.726 92.092 112.947 88.435 111.906 97.135 115.866 96.773 115.68 95.708 114.528 94.181 116.889 94.382 119.232 92.855 119.306 91.589 121.389 95.025 121.463 95.769 121.835 96.291 122.43 96.653 128.938 92.915 135.409 97.979 142.233 96.291 146.417 94.443 150.433 97.296 154.672 96.593 156.16 96.03 157.666 95.025 159.098 96.713 176.632 97.075 195.319 95.568 211.943 96.773 256.364 94.523 303.836 97.698 350.674 94.724 361.719 93.578 373.192 91.951 383.958 90.645 383.958 90.645 392.679 87.068 392.679 70.993S394.538 56.928 394.817 44.128C395.096 31.329 396.398 30.806 394.538 20.76Z" opacity="1" fill="#000000" data-fill-palette-color="tertiary"></path><g transform="matrix(1,0,0,1,55.76832,26.230666666666664)"><svg width="283.98335999999995" viewBox="1.9383335333419998 -36.3 296.58166646665796 46.3" height="44.32858255660685" data-palette-color="#ffe9d1"><path d="M13.85 0.3L13.85 0.3Q10.7 0.3 8.43-0.98 6.15-2.25 4.67-4.48 3.2-6.7 2.53-9.53 1.85-12.35 1.95-15.4L1.95-15.4Q2.15-20.85 3.95-24.8 5.75-28.75 8.5-31.3 11.25-33.85 14.43-35.08 17.6-36.3 20.55-36.3L20.55-36.3Q23.05-36.3 25.08-35.48 27.1-34.65 28.3-33.08 29.5-31.5 29.5-29.25L29.5-29.25Q29.5-27.5 28.48-25.88 27.45-24.25 25.38-23.23 23.3-22.2 20.05-22.2L20.05-22.2Q20.6-23.8 20.85-25 21.1-26.2 21.1-27.05L21.1-27.05Q21.1-28.8 20.3-29.43 19.5-30.05 18.3-30.05L18.3-30.05Q16.85-30.05 15.55-29 14.25-27.95 13.23-26.18 12.2-24.4 11.6-22.25 11-20.1 10.9-17.9L10.9-17.9Q10.7-12.35 12.5-9.5 14.3-6.65 17.15-6.65L17.15-6.65Q19.35-6.65 22.03-8.45 24.7-10.25 27.3-13.9L27.3-13.9 27.95-13.6Q27.3-9.1 25.1-6 22.9-2.9 19.93-1.3 16.95 0.3 13.85 0.3ZM42.35 0.35L42.35 0.35Q38.6 0.35 36.15-1.15 33.7-2.65 32.52-5.13 31.35-7.6 31.35-10.4L31.35-10.4Q31.35-13.05 32.32-15.7 33.3-18.35 35.17-20.53 37.05-22.7 39.75-24.03 42.45-25.35 45.95-25.35L45.95-25.35Q49.7-25.35 52.12-23.83 54.55-22.3 55.72-19.8 56.9-17.3 56.9-14.45L56.9-14.45Q56.9-11.85 55.95-9.22 55-6.6 53.12-4.42 51.25-2.25 48.55-0.95 45.85 0.35 42.35 0.35ZM43.7-3.9L43.7-3.9Q45.05-3.9 45.95-5.3 46.85-6.7 47.3-8.88 47.75-11.05 47.75-13.3L47.75-13.3Q47.75-15.3 47.37-17.07 47-18.85 46.25-19.98 45.5-21.1 44.3-21.1L44.3-21.1Q43-21.1 42.07-19.7 41.15-18.3 40.7-16.15 40.25-14 40.25-11.7L40.25-11.7Q40.25-9.7 40.62-7.93 41-6.15 41.75-5.03 42.5-3.9 43.7-3.9ZM65.14 0.35L65.14 0.35Q63.2 0.25 61.77-1.03 60.34-2.3 59.8-5.5L59.8-5.5Q62.2-6.25 64.57-8.33 66.95-10.4 69.27-13.13 71.59-15.85 73.84-18.45L73.84-18.45Q73.05-18.95 72.3-19.15 71.55-19.35 70.9-19.35L70.9-19.35Q69.55-19.35 68.72-18.63 67.9-17.9 67.9-16.7L67.9-16.7Q67.9-15.6 68.7-14.2L68.7-14.2Q68.09-14.1 67.55-14.05 67-14 66.55-14L66.55-14Q63.4-14 61.9-15.65 60.4-17.3 60.4-19.3L60.4-19.3Q60.4-20.75 61.12-22.13 61.84-23.5 63.3-24.38 64.75-25.25 66.8-25.25L66.8-25.25Q68.7-25.25 71.07-24.33 73.45-23.4 76.3-21.2L76.3-21.2Q77.75-22.75 79.12-23.95 80.5-25.15 81.9-25.8L81.9-25.8Q84.65-25.35 85.82-23.88 87-22.4 87-20.75L87-20.75Q87-20.45 86.97-20.2 86.95-19.95 86.9-19.7L86.9-19.7Q83.84-18.45 81.67-16.38 79.5-14.3 77.65-11.83 75.8-9.35 73.59-6.8L73.59-6.8Q74.5-6.05 75.34-5.73 76.2-5.4 76.9-5.4L76.9-5.4Q78.25-5.4 79.09-6.33 79.95-7.25 79.95-8.5L79.95-8.5Q79.95-8.9 79.87-9.3 79.8-9.7 79.55-10.1L79.55-10.1Q80.15-10.2 80.72-10.28 81.3-10.35 81.84-10.35L81.84-10.35Q84.65-10.35 85.95-8.93 87.25-7.5 87.25-5.65L87.25-5.65Q87.25-4.25 86.5-2.85 85.75-1.45 84.3-0.55 82.84 0.35 80.8 0.35L80.8 0.35Q78.9 0.35 76.47-0.7 74.05-1.75 71.2-4.2L71.2-4.2Q69.95-2.95 68.45-1.8 66.95-0.65 65.14 0.35ZM100.49 10L100.49 10Q97.99 10 96.47 8.47 94.94 6.95 94.94 4.35L94.94 4.35Q94.94 3 95.42 1.38 95.89-0.25 96.99-2.05L96.99-2.05Q94.54-2.2 92.97-3.7 91.39-5.2 91.39-8.25L91.39-8.25Q91.39-10.05 91.87-12.13 92.34-14.2 92.79-16.03 93.24-17.85 93.24-18.85L93.24-18.85Q93.24-19.6 92.94-19.93 92.64-20.25 92.24-20.25L92.24-20.25Q91.84-20.25 91.37-19.93 90.89-19.6 90.64-18.95L90.64-18.95 89.79-19.85Q90.09-21.4 91.09-22.6 92.09-23.8 93.54-24.5 94.99-25.2 96.54-25.2L96.54-25.2Q98.29-25.2 99.59-24.08 100.89-22.95 100.89-20L100.89-20Q100.89-18.15 100.44-16.03 99.99-13.9 99.54-12.03 99.09-10.15 99.09-9.05L99.09-9.05Q99.09-8.05 99.52-7.58 99.94-7.1 100.49-7.1L100.49-7.1Q101.19-7.1 102.09-7.88 102.99-8.65 103.79-10.45 104.59-12.25 104.84-15.3L104.84-15.3Q104.94-16.25 104.99-17.73 105.04-19.2 105.09-20.48 105.14-21.75 105.14-22.05L105.14-22.05Q105.14-23.85 106.47-24.58 107.79-25.3 109.39-25.3L109.39-25.3Q110.79-25.3 112.04-24.75 113.29-24.2 113.74-22.9L113.74-22.9 113.84-22.6Q113.39-22.2 113.07-19.9 112.74-17.6 112.29-13.75L112.29-13.75Q111.99-11.25 111.54-8.1 111.09-4.95 110.32-1.78 109.54 1.4 108.27 4.08 106.99 6.75 105.09 8.38 103.19 10 100.49 10ZM99.29 4.25L99.29 4.25Q100.84 4.25 102.07 1.43 103.29-1.4 103.99-6.6L103.99-6.6Q100.79-2.5 99.59-0.15 98.39 2.2 98.39 3.25L98.39 3.25Q98.39 4.25 99.29 4.25ZM137.69 0.3L137.69 0.3Q134.54 0.3 132.26-0.98 129.99-2.25 128.51-4.48 127.04-6.7 126.36-9.53 125.69-12.35 125.79-15.4L125.79-15.4Q125.99-20.85 127.79-24.8 129.59-28.75 132.34-31.3 135.09-33.85 138.26-35.08 141.44-36.3 144.39-36.3L144.39-36.3Q146.89-36.3 148.91-35.48 150.94-34.65 152.14-33.08 153.34-31.5 153.34-29.25L153.34-29.25Q153.34-27.5 152.31-25.88 151.29-24.25 149.21-23.23 147.14-22.2 143.89-22.2L143.89-22.2Q144.44-23.8 144.69-25 144.94-26.2 144.94-27.05L144.94-27.05Q144.94-28.8 144.14-29.43 143.34-30.05 142.14-30.05L142.14-30.05Q140.69-30.05 139.39-29 138.09-27.95 137.06-26.18 136.04-24.4 135.44-22.25 134.84-20.1 134.74-17.9L134.74-17.9Q134.54-12.35 136.34-9.5 138.14-6.65 140.99-6.65L140.99-6.65Q143.19-6.65 145.86-8.45 148.54-10.25 151.14-13.9L151.14-13.9 151.79-13.6Q151.14-9.1 148.94-6 146.74-2.9 143.76-1.3 140.79 0.3 137.69 0.3ZM166.19 0.35L166.19 0.35Q162.44 0.35 159.99-1.15 157.54-2.65 156.36-5.13 155.19-7.6 155.19-10.4L155.19-10.4Q155.19-13.05 156.16-15.7 157.14-18.35 159.01-20.53 160.89-22.7 163.59-24.03 166.29-25.35 169.79-25.35L169.79-25.35Q173.54-25.35 175.96-23.83 178.39-22.3 179.56-19.8 180.74-17.3 180.74-14.45L180.74-14.45Q180.74-11.85 179.79-9.22 178.84-6.6 176.96-4.42 175.09-2.25 172.39-0.95 169.69 0.35 166.19 0.35ZM167.54-3.9L167.54-3.9Q168.89-3.9 169.79-5.3 170.69-6.7 171.14-8.88 171.59-11.05 171.59-13.3L171.59-13.3Q171.59-15.3 171.21-17.07 170.84-18.85 170.09-19.98 169.34-21.1 168.14-21.1L168.14-21.1Q166.84-21.1 165.91-19.7 164.99-18.3 164.54-16.15 164.09-14 164.09-11.7L164.09-11.7Q164.09-9.7 164.46-7.93 164.84-6.15 165.59-5.03 166.34-3.9 167.54-3.9ZM190.73 0.2L190.73 0.2Q189.13 0.2 187.71-0.53 186.28-1.25 185.41-2.8 184.53-4.35 184.53-6.75L184.53-6.75Q184.53-8.05 184.78-10.15 185.03-12.25 185.46-14.75 185.88-17.25 186.33-19.75L186.33-19.75Q185.33-19.7 184.41-19.55 183.48-19.4 182.58-19.2L182.58-19.2 182.48-19.55Q183.48-20.75 184.58-21.6 185.68-22.45 186.88-23L186.88-23Q187.53-26.3 187.98-28.73 188.43-31.15 188.43-31.6L188.43-31.6Q188.43-32.45 189.76-33 191.08-33.55 192.73-33.55L192.73-33.55Q194.18-33.55 195.46-33 196.73-32.45 197.18-31.15L197.18-31.15Q196.88-30.85 196.33-28.93 195.78-27 195.18-24.25L195.18-24.25Q196.13-24.2 197.13-24.15 198.13-24.1 199.18-24L199.18-24Q199.28-23.7 199.33-23.35 199.38-23 199.38-22.6L199.38-22.6Q199.38-21.85 199.16-20.98 198.93-20.1 198.63-19.4L198.63-19.4Q197.43-19.5 196.38-19.63 195.33-19.75 194.33-19.8L194.33-19.8Q193.93-17.65 193.61-15.5 193.28-13.35 193.11-11.6 192.93-9.85 192.93-8.85L192.93-8.85Q192.93-6.75 193.71-6.05 194.48-5.35 195.58-5.35L195.58-5.35Q196.58-5.35 197.38-5.75 198.18-6.15 198.53-6.7L198.53-6.7 199.03-6.55Q198.73-4.5 197.43-2.98 196.13-1.45 194.33-0.63 192.53 0.2 190.73 0.2ZM208.38 0.2L208.38 0.2Q206.78 0.2 205.36-0.53 203.93-1.25 203.06-2.8 202.18-4.35 202.18-6.75L202.18-6.75Q202.18-8.05 202.43-10.15 202.68-12.25 203.11-14.75 203.53-17.25 203.98-19.75L203.98-19.75Q202.98-19.7 202.06-19.55 201.13-19.4 200.23-19.2L200.23-19.2 200.13-19.55Q201.13-20.75 202.23-21.6 203.33-22.45 204.53-23L204.53-23Q205.18-26.3 205.63-28.73 206.08-31.15 206.08-31.6L206.08-31.6Q206.08-32.45 207.41-33 208.73-33.55 210.38-33.55L210.38-33.55Q211.83-33.55 213.11-33 214.38-32.45 214.83-31.15L214.83-31.15Q214.53-30.85 213.98-28.93 213.43-27 212.83-24.25L212.83-24.25Q213.78-24.2 214.78-24.15 215.78-24.1 216.83-24L216.83-24Q216.93-23.7 216.98-23.35 217.03-23 217.03-22.6L217.03-22.6Q217.03-21.85 216.81-20.98 216.58-20.1 216.28-19.4L216.28-19.4Q215.08-19.5 214.03-19.63 212.98-19.75 211.98-19.8L211.98-19.8Q211.58-17.65 211.26-15.5 210.93-13.35 210.76-11.6 210.58-9.85 210.58-8.85L210.58-8.85Q210.58-6.75 211.36-6.05 212.13-5.35 213.23-5.35L213.23-5.35Q214.23-5.35 215.03-5.75 215.83-6.15 216.18-6.7L216.18-6.7 216.68-6.55Q216.38-4.5 215.08-2.98 213.78-1.45 211.98-0.63 210.18 0.2 208.38 0.2ZM237.13 0.25L237.13 0.25Q235.38 0.25 234.08-0.9 232.78-2.05 232.78-4.65L232.78-4.65Q232.78-4.9 232.78-5.15 232.78-5.4 232.83-5.65L232.83-5.65Q231.33-2.65 229.45-1.23 227.58 0.2 225.68 0.2L225.68 0.2Q223.93 0.2 222.38-1.03 220.83-2.25 219.88-4.65 218.93-7.05 218.93-10.45L218.93-10.45Q218.93-13.95 219.9-16.7 220.88-19.45 222.48-21.35 224.08-23.25 225.98-24.23 227.88-25.2 229.68-25.2L229.68-25.2Q231.68-25.2 233.28-23.98 234.88-22.75 235.48-20.1L235.48-20.1Q235.63-20.95 235.7-21.65 235.78-22.35 235.78-22.6L235.78-22.6Q235.83-23.95 237.15-24.6 238.48-25.25 240.08-25.25L240.08-25.25Q241.48-25.25 242.73-24.7 243.98-24.15 244.43-22.85L244.43-22.85 244.53-22.55Q243.93-21.2 243.33-19.3 242.73-17.4 242.23-15.33 241.73-13.25 241.43-11.28 241.13-9.3 241.13-7.8L241.13-7.8Q241.13-6.15 241.48-5.53 241.83-4.9 242.33-4.9L242.33-4.9Q243.18-4.9 243.88-6.1L243.88-6.1 244.28-5.9Q244.28-4.2 243.18-2.8 242.08-1.4 240.43-0.58 238.78 0.25 237.13 0.25ZM228.98-6.1L228.98-6.1Q230.28-6.1 231.85-8.43 233.43-10.75 234.58-15.1L234.58-15.1Q234.68-15.55 234.78-15.98 234.88-16.4 234.93-16.8L234.93-16.8Q234.13-18.65 233.25-19.43 232.38-20.2 231.53-20.2L231.53-20.2Q230.28-20.2 229.2-18.88 228.13-17.55 227.45-15.55 226.78-13.55 226.78-11.55L226.78-11.55Q226.78-8.8 227.4-7.45 228.03-6.1 228.98-6.1ZM259.28 10L259.28 10Q256.83 10 255.23 8.55 253.63 7.1 253.63 4.45L253.63 4.45Q253.63 1.6 255.63-2.25L255.63-2.25Q255.28-2.15 254.93-2.1 254.58-2.05 254.23-2.05L254.23-2.05Q251.33-2.05 249.35-4.58 247.38-7.1 247.38-11.6L247.38-11.6Q247.38-15.65 248.95-18.75 250.53-21.85 252.98-23.6 255.43-25.35 258.08-25.35L258.08-25.35Q259.93-25.35 261.43-24.43 262.93-23.5 263.88-21.45L263.88-21.45Q263.93-21.95 263.93-22.35 263.93-22.75 263.93-23.1L263.93-23.1Q263.93-23.95 265.23-24.5 266.53-25.05 268.13-25.05L268.13-25.05Q269.58-25.05 270.83-24.5 272.08-23.95 272.48-22.65L272.48-22.65 272.58-22.35Q272.13-21.95 271.8-19.75 271.48-17.55 271.03-13.65L271.03-13.65Q270.73-11.2 270.28-8.08 269.83-4.95 269.05-1.78 268.28 1.4 267.03 4.08 265.78 6.75 263.88 8.38 261.98 10 259.28 10ZM257.63-7.8L257.63-7.8Q259.08-7.8 260.85-10.18 262.63-12.55 263.68-17L263.68-17Q262.78-18.95 261.85-19.78 260.93-20.6 259.98-20.6L259.98-20.6Q258.73-20.6 257.63-19.35 256.53-18.1 255.85-16.18 255.18-14.25 255.18-12.2L255.18-12.2Q255.18-10.1 255.88-8.95 256.58-7.8 257.63-7.8ZM257.03 4.25L257.03 4.25Q258.73 4.25 260.5 0.93 262.28-2.4 262.98-8.45L262.98-8.45Q259.18-3.3 257.7-0.53 256.23 2.25 256.23 3.4L256.23 3.4Q256.23 4.25 257.03 4.25ZM285.72 0.35L285.72 0.35Q282.07 0.35 279.67-1.13 277.27-2.6 276.07-5.03 274.87-7.45 274.87-10.25L274.87-10.25Q274.87-12.9 275.9-15.58 276.92-18.25 278.9-20.45 280.87-22.65 283.7-24 286.52-25.35 290.07-25.35L290.07-25.35Q294.47-25.35 296.5-23.38 298.52-21.4 298.52-18.6L298.52-18.6Q298.52-16.2 297.25-14.18 295.97-12.15 293.87-10.93 291.77-9.7 289.27-9.7L289.27-9.7Q287.97-9.7 286.62-10.1 285.27-10.5 283.97-11.35L283.97-11.35Q284.22-8.25 285.77-6.85 287.32-5.45 289.47-5.45L289.47-5.45Q290.97-5.45 292.47-6.03 293.97-6.6 295.25-7.53 296.52-8.45 297.22-9.5L297.22-9.5 297.57-9.25Q297.57-6.65 296.5-4.83 295.42-3 293.67-1.85 291.92-0.7 289.85-0.18 287.77 0.35 285.72 0.35ZM286.87-13.15L286.87-13.15Q288.47-13.15 289.47-14.08 290.47-15 290.97-16.25 291.47-17.5 291.47-18.45L291.47-18.45Q291.47-19.6 290.82-20.38 290.17-21.15 289.02-21.15L289.02-21.15Q288.12-21.15 287.05-20.5 285.97-19.85 285.12-18.28 284.27-16.7 284.02-13.9L284.02-13.9Q285.62-13.15 286.87-13.15Z" opacity="1" transform="matrix(1,0,0,1,0,0)" fill="#ffffff" class="wordmark-text-0" data-fill-palette-color="quaternary" id="text-0"></path></svg></g></svg></g></svg></g></svg></g><g><svg viewBox="0 0 141.06344733558046 97.2015956655254" height="97.2015956655254" width="141.06344733558046"><g><svg xmlns="http://www.w3.org/2000/svg" xmlns:xlink="http://www.w3.org/1999/xlink" version="1.1" x="0" y="0" viewBox="3.222888888888889 22.589000000000002 94.33118808544143 65.0001270783985" enable-background="new 0 0 100 100" xml:space="preserve" height="97.2015956655254" width="141.06344733558046" class="icon-icon-0" data-fill-palette-color="accent" id="icon-0"><path fill="none" d="M53.179 29.09c0.23-0.013 0.461-0.021 0.682-0.021 0.216 0 0.446 0.006 0.686 0.016C54.216 28.972 53.771 28.992 53.179 29.09z"></path><path fill="none" d="M52.185 37.735l-0.358-2.325 0.009-0.136c-0.005-0.242-0.429-0.946-0.683-1.366-0.665-1.105-1.419-2.358-0.75-3.543 0.294-0.52 0.776-0.829 1.328-1.018l-14.429-0.586c-3.135 0-9.105-4.199-9.105-1.064L29.378 37c0 3.134-2.188 5.715 0.946 5.715l20.219-0.354c1.164 0 2.377 0.122 3.441 0.115C52.382 41.647 52.19 39.921 52.185 37.735z"></path><g fill="#515839" data-fill-palette-color="accent"><path fill="#000000" d="M77.68 36.496c-0.456-0.665-0.591-2.347-0.769-3.133-0.166-0.729 1.123-4.553-2.011-4.553l-18.171 1.577c-2.789-0.355-4.255-0.262-4.945 0.099-0.341 0.077-0.546 0.375-0.505 0.628 0.141 0.868 1.238 2.334 1.552 3.156 0.412 1.084 0.933 3.355 1.154 4.493 0.122 0.622 0.338 2.51 0.338 2.51v0.003c0.001 0 0.003 0 0.006 0 0.51 0.323 1.269 0.463 2.4 0.463h22.229C82.095 41.739 80.492 40.593 77.68 36.496z" data-fill-palette-color="accent"></path><path fill="#000000" d="M52.793 38.881c-0.083-1.088-0.551-3.248-0.967-4.257-0.373-0.906-1.608-2.569-1.664-3.548-0.009-0.169 0.218-0.644 0.218-0.644l-13.262-0.49c-1.407-0.008-3.095-0.649-4.729-1.269-1.154-0.438-2.459-0.934-3.156-0.957l1.17 9.281c0 1.182-0.268 2.27-0.482 3.143-0.111 0.454-0.258 1.05-0.264 1.348 0.092 0.02 0.25 0.042 0.5 0.042l20.209-0.354c0.001 0 0.003 0 0.005 0 0.628 0 1.235 0.031 1.823 0.061 0.191 0.01 0.422 0.15 0.558 0.026C53.193 40.863 52.837 39.476 52.793 38.881z" data-fill-palette-color="accent"></path><path fill="#000000" d="M52.773 41.265c-0.008 0-0.013 0-0.021-0.001v0.001H52.773z" data-fill-palette-color="accent"></path></g><g fill="#515839" data-fill-palette-color="accent"><path fill="#000000" d="M29.378 37l-1.183-9.303c0-3.135 5.971 1.064 9.105 1.064l14.429 0.586c0.454-0.155 0.953-0.229 1.448-0.257 0.593-0.098 1.037-0.118 1.367-0.005 0.66 0.028 1.41 0.095 2.274 0.203l18.147-1.57c1.059 0 1.893 0.332 2.479 0.984 1.056 1.176 0.862 2.963 0.747 4.03-0.02 0.178-0.046 0.417-0.047 0.521 0.048 0.231 0.098 0.523 0.147 0.841 0.08 0.506 0.249 1.558 0.428 1.822 0.542 0.788 1.032 1.459 1.466 2.052 0.636 0.868 1.137 1.553 1.436 2.15V24.164c0-0.87-0.705-1.575-1.575-1.575H26.756c-0.871 0-1.575 0.705-1.575 1.575v17.774c1.277-0.129 2.514-0.206 3.463-0.25C28.548 40.652 29.378 38.932 29.378 37z" data-fill-palette-color="accent"></path><path fill="#000000" d="M76.555 43.011c0.769 0.18 1.457 0.391 1.88 0.629 0.913 0.519 2.004 1.229 3.188 2.079v-3.58c-0.604 0.86-1.883 0.872-2.595 0.872H76.555z" data-fill-palette-color="accent"></path><path fill="#000000" d="M18.039 51.266c1.861-1.584 4.4-2.805 5.458-2.969 0.531-0.083 1.099-0.157 1.684-0.229 11.924-1.465 34.302-0.791 44.61-0.048 2.073 0.15 6.309 0.548 8.197 1.419 1.018 0.47 2.345 1.452 3.635 2.545 1.48 1.253 2.91 2.652 3.775 3.604 1.076 1.184 3.03 3.729 3.94 5.045 1.291 1.86 4.73 7.726 4.73 7.726s1.868-1.504 2.208-2.208 0.268-2.394 0-3.128c-1.71-4.705-9.02-11.674-14.654-15.843-1.396-1.034-2.693-1.898-3.772-2.511-1.202-0.681-5.736-1.183-5.736-1.183-1.185-0.201-2.66-0.352-4.066-0.475h-11.25c-1.243 0-2.147-0.192-2.812-0.536-0.345 0.001-0.708-0.011-1.077-0.027-8.14-0.006-17.153 0.244-22.691 0.368-1.249 0.028-3.163 0.116-5.036 0.31-1.761 0.183-3.484 0.459-4.582 0.873-2.464 0.928-6.776 4.614-7.851 7.016-0.402 0.899 0.066 4.887 0.066 4.887S17.011 52.142 18.039 51.266z" data-fill-palette-color="accent"></path><path fill="#000000" d="M96.075 83.363c-0.959-2.151 0.85-8.12 0-9.418-4.434-6.782-9.833-16.708-14.564-20.6-1.472-1.312-3.046-2.533-4.132-3.034-1.228-0.566-4.065-1.045-7.787-1.313-5.236-0.377-14.924-0.817-24.993-0.817-8.238 0-14.933 0.303-19.532 0.877-2.595 0.265-6.162 2.422-8.006 4.267C13.12 57.266 4.827 64.726 3.606 69.706c-0.862 3.517 0 14.484 0 14.484s5.794-6.77 9.312-9.637c1.354-1.104 12.15-0.414 12.15-0.414s0.215 0.004 0.573 0.014c0.285 0.286 0.68 0.463 1.116 0.463h10.888c1.725 0.103 3.253 0.218 4.274 0.352 3.341 0.431 9.889 2.08 13.184 2.778 2.221 0.47 6.67 1.416 8.928 1.655 2.868 0.304 8.719-0.234 11.529 0.414 3.949 0.91 10.78 5.752 14.662 6.918 1.761 0.528 7.356 1.302 7.332 0.531C97.466 84.613 96.5 84.315 96.075 83.363z" data-fill-palette-color="accent"></path></g><path fill="#000000" d="M75.227 80.665c-2.651-0.566-8.145 0.041-10.84-0.238-2.835-0.292-8.409-1.565-11.194-2.165-3.448-0.744-10.321-2.453-13.835-2.762-3.141-0.275-9.503 0.211-12.613-0.314-0.292-0.05-0.85-0.273-1.143-0.315-2.624-0.377-10.063-0.221-10.063-0.221v9.924c0 0.347 0.706 0.626 1.576 0.626h68.124C85.238 85.199 77.914 81.236 75.227 80.665z" data-fill-palette-color="accent"></path></svg></g></svg></g></svg></g><defs></defs></svg><rect width="395.52" height="70.27747051786541" fill="none" stroke="none" visibility="hidden"></rect></g></svg></g></svg>