<svg width="1440" height="1485" viewBox="0 0 1440 1485" fill="none" xmlns="http://www.w3.org/2000/svg">
<rect width="1440" height="1485" fill="white"/>
<rect x="9" y="41" width="1381" height="1111" fill="#D9D9D9"/>
<rect y="1100" width="1440" height="260" fill="#8B6E6E"/>
<rect x="893" y="12" width="246" height="47" rx="23.5" fill="#863333"/>
<rect x="248" y="586" width="73" height="14" rx="7" transform="rotate(-90 248 586)" fill="#863333"/>
<rect x="168" y="736" width="73" height="14" rx="7" fill="#863333"/>
<rect x="338" y="736" width="73" height="14" rx="7" fill="#863333"/>
<rect x="509" y="736" width="73" height="14" rx="7" fill="#863333"/>
<rect x="684" y="736" width="73" height="14" rx="7" fill="#863333"/>
<rect x="757" y="1111" width="73" height="14" rx="7" transform="rotate(180 757 1111)" fill="#863333"/>
<rect x="511" y="1097" width="73" height="14" rx="7" fill="#863333"/>
<rect x="338" y="1097" width="73" height="14" rx="7" fill="#863333"/>
<rect x="165" y="1097" width="73" height="14" rx="7" fill="#863333"/>
<rect x="666" y="743" width="108" height="99" fill="#F2BD00"/>
<rect x="774" y="1104" width="108" height="99" transform="rotate(180 774 1104)" fill="#F2BD00"/>
<rect x="493" y="743" width="108" height="99" fill="#F2BD00"/>
<rect x="493" y="1005" width="108" height="99" fill="#F2BD00"/>
<rect x="320" y="743" width="108" height="99" fill="#F2BD00"/>
<rect x="320" y="1005" width="108" height="99" fill="#F2BD00"/>
<rect x="147" y="743" width="108" height="99" fill="#F2BD00"/>
<rect x="147" y="1005" width="108" height="99" fill="#F2BD00"/>
<rect x="147" y="498" width="108" height="99" fill="#F2BD00"/>
<rect x="1148" y="311" width="242" height="374" rx="34" fill="#3C4D78"/>
<path d="M326.366 1072.4L310.45 1054.38H316.552C318.347 1054.38 319.935 1053.38 320.692 1051.77C321.449 1050.17 321.2 1048.34 320.038 1046.98L304.473 1028.88H310.229C312.042 1028.88 313.675 1027.81 314.385 1026.17C315.086 1024.55 314.755 1022.66 313.54 1021.37L291.572 997.964C290.371 996.679 288.13 996.679 286.926 997.964L264.956 1021.37C263.741 1022.66 263.412 1024.55 264.112 1026.17C264.821 1027.81 266.456 1028.88 268.269 1028.88H274.025L258.458 1046.99C257.3 1048.34 257.051 1050.17 257.806 1051.78C258.563 1053.38 260.149 1054.38 261.946 1054.38H268.048L252.133 1072.4C250.937 1073.76 250.666 1075.61 251.423 1077.24C252.171 1078.84 253.814 1079.88 255.609 1079.88H282.874V1084.75L276.84 1094.39C275.78 1096.51 277.322 1099 279.691 1099H298.808C301.176 1099 302.718 1096.51 301.658 1094.39L295.624 1084.75V1079.88H322.889C324.684 1079.88 326.328 1078.84 327.075 1077.24C327.832 1075.61 327.561 1073.76 326.366 1072.4Z" fill="#1A5C0F"/>
<path d="M500.366 1072.4L484.45 1054.38H490.552C492.347 1054.38 493.935 1053.38 494.692 1051.77C495.449 1050.17 495.2 1048.34 494.038 1046.98L478.473 1028.88H484.229C486.042 1028.88 487.675 1027.81 488.385 1026.17C489.086 1024.55 488.755 1022.66 487.54 1021.37L465.572 997.964C464.371 996.679 462.13 996.679 460.926 997.964L438.956 1021.37C437.741 1022.66 437.412 1024.55 438.112 1026.17C438.821 1027.81 440.456 1028.88 442.269 1028.88H448.025L432.458 1046.99C431.3 1048.34 431.051 1050.17 431.806 1051.78C432.563 1053.38 434.149 1054.38 435.946 1054.38H442.048L426.133 1072.4C424.937 1073.76 424.666 1075.61 425.423 1077.24C426.171 1078.84 427.814 1079.88 429.609 1079.88H456.874V1084.75L450.84 1094.39C449.78 1096.51 451.322 1099 453.691 1099H472.808C475.176 1099 476.718 1096.51 475.658 1094.39L469.624 1084.75V1079.88H496.889C498.684 1079.88 500.328 1078.84 501.075 1077.24C501.832 1075.61 501.561 1073.76 500.366 1072.4Z" fill="#1A5C0F"/>
<path d="M674.366 1072.4L658.45 1054.38H664.552C666.347 1054.38 667.935 1053.38 668.692 1051.77C669.449 1050.17 669.2 1048.34 668.038 1046.98L652.473 1028.88H658.229C660.042 1028.88 661.675 1027.81 662.385 1026.17C663.086 1024.55 662.755 1022.66 661.54 1021.37L639.572 997.964C638.371 996.679 636.13 996.679 634.926 997.964L612.956 1021.37C611.741 1022.66 611.412 1024.55 612.112 1026.17C612.821 1027.81 614.456 1028.88 616.269 1028.88H622.025L606.458 1046.99C605.3 1048.34 605.051 1050.17 605.806 1051.78C606.563 1053.38 608.149 1054.38 609.946 1054.38H616.048L600.133 1072.4C598.937 1073.76 598.666 1075.61 599.423 1077.24C600.171 1078.84 601.814 1079.88 603.609 1079.88H630.874V1084.75L624.84 1094.39C623.78 1096.51 625.322 1099 627.691 1099H646.808C649.176 1099 650.718 1096.51 649.658 1094.39L643.624 1084.75V1079.88H670.889C672.684 1079.88 674.328 1078.84 675.075 1077.24C675.832 1075.61 675.561 1073.76 674.366 1072.4Z" fill="#1A5C0F"/>
<path d="M151.366 1072.4L135.45 1054.38H141.552C143.347 1054.38 144.935 1053.38 145.692 1051.77C146.449 1050.17 146.2 1048.34 145.038 1046.98L129.473 1028.88H135.229C137.042 1028.88 138.675 1027.81 139.385 1026.17C140.086 1024.55 139.755 1022.66 138.54 1021.37L116.572 997.964C115.371 996.679 113.13 996.679 111.926 997.964L89.9564 1021.37C88.7411 1022.66 88.4124 1024.55 89.1117 1026.17C89.8209 1027.81 91.4565 1028.88 93.2694 1028.88H99.0248L83.4579 1046.99C82.3004 1048.34 82.0514 1050.17 82.8064 1051.78C83.5634 1053.38 85.1492 1054.38 86.9462 1054.38H93.0483L77.1327 1072.4C75.9374 1073.76 75.6664 1075.61 76.4234 1077.24C77.1705 1078.84 78.8141 1079.88 80.609 1079.88H107.874V1084.75L101.84 1094.39C100.78 1096.51 102.322 1099 104.691 1099H123.808C126.176 1099 127.718 1096.51 126.658 1094.39L120.624 1084.75V1079.88H147.889C149.684 1079.88 151.328 1078.84 152.075 1077.24C152.832 1075.61 152.561 1073.76 151.366 1072.4Z" fill="#1A5C0F"/>
<path d="M836.366 1072.4L820.45 1054.38H826.552C828.347 1054.38 829.935 1053.38 830.692 1051.77C831.449 1050.17 831.2 1048.34 830.038 1046.98L814.473 1028.88H820.229C822.042 1028.88 823.675 1027.81 824.385 1026.17C825.086 1024.55 824.755 1022.66 823.54 1021.37L801.572 997.964C800.371 996.679 798.13 996.679 796.926 997.964L774.956 1021.37C773.741 1022.66 773.412 1024.55 774.112 1026.17C774.821 1027.81 776.456 1028.88 778.269 1028.88H784.025L768.458 1046.99C767.3 1048.34 767.051 1050.17 767.806 1051.78C768.563 1053.38 770.149 1054.38 771.946 1054.38H778.048L762.133 1072.4C760.937 1073.76 760.666 1075.61 761.423 1077.24C762.171 1078.84 763.814 1079.88 765.609 1079.88H792.874V1084.75L786.84 1094.39C785.78 1096.51 787.322 1099 789.691 1099H808.808C811.176 1099 812.718 1096.51 811.658 1094.39L805.624 1084.75V1079.88H832.889C834.684 1079.88 836.328 1078.84 837.075 1077.24C837.832 1075.61 837.561 1073.76 836.366 1072.4Z" fill="#1A5C0F"/>
<path d="M503.366 838.404L487.45 820.376H493.552C495.347 820.376 496.935 819.38 497.692 817.775C498.449 816.173 498.2 814.336 497.038 812.983L481.473 794.876H487.229C489.042 794.876 490.675 793.811 491.385 792.165C492.086 790.545 491.755 788.661 490.54 787.368L468.572 763.964C467.371 762.679 465.13 762.679 463.926 763.964L441.956 787.368C440.741 788.661 440.412 790.545 441.112 792.165C441.821 793.811 443.456 794.876 445.269 794.876H451.025L435.458 812.987C434.3 814.338 434.051 816.173 434.806 817.777C435.563 819.38 437.149 820.376 438.946 820.376H445.048L429.133 838.404C427.937 839.756 427.666 841.609 428.423 843.237C429.171 844.841 430.814 845.876 432.609 845.876H459.874V850.747L453.84 860.39C452.78 862.509 454.322 865.003 456.691 865.003H475.808C478.176 865.003 479.718 862.509 478.658 860.39L472.624 850.747V845.876H499.889C501.684 845.876 503.328 844.841 504.075 843.237C504.832 841.609 504.561 839.756 503.366 838.404Z" fill="#1A5C0F"/>
<path d="M146.366 825.404L130.45 807.376H136.552C138.347 807.376 139.935 806.38 140.692 804.775C141.449 803.173 141.2 801.336 140.038 799.983L124.473 781.876H130.229C132.042 781.876 133.675 780.811 134.385 779.165C135.086 777.545 134.755 775.661 133.54 774.368L111.572 750.964C110.371 749.679 108.13 749.679 106.926 750.964L84.9564 774.368C83.7411 775.661 83.4124 777.545 84.1117 779.165C84.8209 780.811 86.4565 781.876 88.2694 781.876H94.0248L78.4579 799.987C77.3004 801.338 77.0514 803.173 77.8064 804.777C78.5634 806.38 80.1492 807.376 81.9462 807.376H88.0483L72.1327 825.404C70.9374 826.756 70.6664 828.609 71.4234 830.237C72.1705 831.841 73.8141 832.876 75.609 832.876H102.874V837.747L96.8398 847.39C95.7799 849.509 97.3219 852.003 99.6906 852.003H118.808C121.176 852.003 122.718 849.509 121.658 847.39L115.624 837.747V832.876H142.889C144.684 832.876 146.328 831.841 147.075 830.237C147.832 828.609 147.561 826.756 146.366 825.404Z" fill="#1A5C0F"/>
<rect x="270" y="574" width="48" height="685" transform="rotate(-90 270 574)" fill="#C75959"/>
<path d="M693.5 526H741.5C723.131 604.37 732.464 649.278 741.5 729H693.5C702.965 649.724 712.739 605.276 693.5 526Z" fill="#C75959"/>
<path d="M532 526H578C564.887 607.065 571.452 650.617 578 729H532C532 729 542.862 633.52 540.5 574C539.717 554.259 532 526 532 526Z" fill="#C75959"/>
<path d="M349 526H396C396 526 384.509 564.858 381.5 590.5C375.162 644.513 396 729 396 729H349C358.242 649.724 369.336 605.276 349 526Z" fill="#C75959"/>
<path d="M336.5 574H371C371 574 318 662.534 314.5 667.5C291.971 699.466 224.5 729 224.5 729H187C187 729 275.855 691.881 297 654C314.044 623.464 336.5 574 336.5 574Z" fill="#C75959"/>
<path d="M151.366 499.404L135.45 481.376H141.552C143.347 481.376 144.935 480.38 145.692 478.775C146.449 477.173 146.2 475.336 145.038 473.983L129.473 455.876H135.229C137.042 455.876 138.675 454.811 139.385 453.165C140.086 451.545 139.755 449.661 138.54 448.368L116.572 424.964C115.371 423.679 113.13 423.679 111.926 424.964L89.9564 448.368C88.7411 449.661 88.4124 451.545 89.1117 453.165C89.8209 454.811 91.4565 455.876 93.2694 455.876H99.0248L83.4579 473.987C82.3004 475.338 82.0514 477.173 82.8064 478.777C83.5634 480.38 85.1492 481.376 86.9462 481.376H93.0483L77.1327 499.404C75.9374 500.756 75.6664 502.609 76.4234 504.237C77.1705 505.841 78.8141 506.876 80.609 506.876H107.874V511.747L101.84 521.39C100.78 523.509 102.322 526.003 104.691 526.003H123.808C126.176 526.003 127.718 523.509 126.658 521.39L120.624 511.747V506.876H147.889C149.684 506.876 151.328 505.841 152.075 504.237C152.832 502.609 152.561 500.756 151.366 499.404Z" fill="#1A5C0F"/>
<path d="M870.366 499.404L854.45 481.376H860.552C862.347 481.376 863.935 480.38 864.692 478.775C865.449 477.173 865.2 475.336 864.038 473.983L848.473 455.876H854.229C856.042 455.876 857.675 454.811 858.385 453.165C859.086 451.545 858.755 449.661 857.54 448.368L835.572 424.964C834.371 423.679 832.13 423.679 830.926 424.964L808.956 448.368C807.741 449.661 807.412 451.545 808.112 453.165C808.821 454.811 810.456 455.876 812.269 455.876H818.025L802.458 473.987C801.3 475.338 801.051 477.173 801.806 478.777C802.563 480.38 804.149 481.376 805.946 481.376H812.048L796.133 499.404C794.937 500.756 794.666 502.609 795.423 504.237C796.171 505.841 797.814 506.876 799.609 506.876H826.874V511.747L820.84 521.39C819.78 523.509 821.322 526.003 823.691 526.003H842.808C845.176 526.003 846.718 523.509 845.658 521.39L839.624 511.747V506.876H866.889C868.684 506.876 870.328 505.841 871.075 504.237C871.832 502.609 871.561 500.756 870.366 499.404Z" fill="#1A5C0F"/>
<path d="M716.366 499.404L700.45 481.376H706.552C708.347 481.376 709.935 480.38 710.692 478.775C711.449 477.173 711.2 475.336 710.038 473.983L694.473 455.876H700.229C702.042 455.876 703.675 454.811 704.385 453.165C705.086 451.545 704.755 449.661 703.54 448.368L681.572 424.964C680.371 423.679 678.13 423.679 676.926 424.964L654.956 448.368C653.741 449.661 653.412 451.545 654.112 453.165C654.821 454.811 656.456 455.876 658.269 455.876H664.025L648.458 473.987C647.3 475.338 647.051 477.173 647.806 478.777C648.563 480.38 650.149 481.376 651.946 481.376H658.048L642.133 499.404C640.937 500.756 640.666 502.609 641.423 504.237C642.171 505.841 643.814 506.876 645.609 506.876H672.874V511.747L666.84 521.39C665.78 523.509 667.322 526.003 669.691 526.003H688.808C691.176 526.003 692.718 523.509 691.658 521.39L685.624 511.747V506.876H712.889C714.684 506.876 716.328 505.841 717.075 504.237C717.832 502.609 717.561 500.756 716.366 499.404Z" fill="#1A5C0F"/>
<path d="M555.366 499.404L539.45 481.376H545.552C547.347 481.376 548.935 480.38 549.692 478.775C550.449 477.173 550.2 475.336 549.038 473.983L533.473 455.876H539.229C541.042 455.876 542.675 454.811 543.385 453.165C544.086 451.545 543.755 449.661 542.54 448.368L520.572 424.964C519.371 423.679 517.13 423.679 515.926 424.964L493.956 448.368C492.741 449.661 492.412 451.545 493.112 453.165C493.821 454.811 495.456 455.876 497.269 455.876H503.025L487.458 473.987C486.3 475.338 486.051 477.173 486.806 478.777C487.563 480.38 489.149 481.376 490.946 481.376H497.048L481.133 499.404C479.937 500.756 479.666 502.609 480.423 504.237C481.171 505.841 482.814 506.876 484.609 506.876H511.874V511.747L505.84 521.39C504.78 523.509 506.322 526.003 508.691 526.003H527.808C530.176 526.003 531.718 523.509 530.658 521.39L524.624 511.747V506.876H551.889C553.684 506.876 555.328 505.841 556.075 504.237C556.832 502.609 556.561 500.756 555.366 499.404Z" fill="#1A5C0F"/>
<path d="M386.366 501.404L370.45 483.376H376.552C378.347 483.376 379.935 482.38 380.692 480.775C381.449 479.173 381.2 477.336 380.038 475.983L364.473 457.876H370.229C372.042 457.876 373.675 456.811 374.385 455.165C375.086 453.545 374.755 451.661 373.54 450.368L351.572 426.964C350.371 425.679 348.13 425.679 346.926 426.964L324.956 450.368C323.741 451.661 323.412 453.545 324.112 455.165C324.821 456.811 326.456 457.876 328.269 457.876H334.025L318.458 475.987C317.3 477.338 317.051 479.173 317.806 480.777C318.563 482.38 320.149 483.376 321.946 483.376H328.048L312.133 501.404C310.937 502.756 310.666 504.609 311.423 506.237C312.171 507.841 313.814 508.876 315.609 508.876H342.874V513.747L336.84 523.39C335.78 525.509 337.322 528.003 339.691 528.003H358.808C361.176 528.003 362.718 525.509 361.658 523.39L355.624 513.747V508.876H382.889C384.684 508.876 386.328 507.841 387.075 506.237C387.832 504.609 387.561 502.756 386.366 501.404Z" fill="#1A5C0F"/>
<path d="M712.366 610.404L696.45 592.376H702.552C704.347 592.376 705.935 591.38 706.692 589.775C707.449 588.173 707.2 586.336 706.038 584.983L690.473 566.876H696.229C698.042 566.876 699.675 565.811 700.385 564.165C701.086 562.545 700.755 560.661 699.54 559.368L677.572 535.964C676.371 534.679 674.13 534.679 672.926 535.964L650.956 559.368C649.741 560.661 649.412 562.545 650.112 564.165C650.821 565.811 652.456 566.876 654.269 566.876H660.025L644.458 584.987C643.3 586.338 643.051 588.173 643.806 589.777C644.563 591.38 646.149 592.376 647.946 592.376H654.048L638.133 610.404C636.937 611.756 636.666 613.609 637.423 615.237C638.171 616.841 639.814 617.876 641.609 617.876H668.874V622.747L662.84 632.39C661.78 634.509 663.322 637.003 665.691 637.003H684.808C687.176 637.003 688.718 634.509 687.658 632.39L681.624 622.747V617.876H708.889C710.684 617.876 712.328 616.841 713.075 615.237C713.832 613.609 713.561 611.756 712.366 610.404Z" fill="#1A5C0F"/>
<path d="M553.366 610.404L537.45 592.376H543.552C545.347 592.376 546.935 591.38 547.692 589.775C548.449 588.173 548.2 586.336 547.038 584.983L531.473 566.876H537.229C539.042 566.876 540.675 565.811 541.385 564.165C542.086 562.545 541.755 560.661 540.54 559.368L518.572 535.964C517.371 534.679 515.13 534.679 513.926 535.964L491.956 559.368C490.741 560.661 490.412 562.545 491.112 564.165C491.821 565.811 493.456 566.876 495.269 566.876H501.025L485.458 584.987C484.3 586.338 484.051 588.173 484.806 589.777C485.563 591.38 487.149 592.376 488.946 592.376H495.048L479.133 610.404C477.937 611.756 477.666 613.609 478.423 615.237C479.171 616.841 480.814 617.876 482.609 617.876H509.874V622.747L503.84 632.39C502.78 634.509 504.322 637.003 506.691 637.003H525.808C528.176 637.003 529.718 634.509 528.658 632.39L522.624 622.747V617.876H549.889C551.684 617.876 553.328 616.841 554.075 615.237C554.832 613.609 554.561 611.756 553.366 610.404Z" fill="#1A5C0F"/>
<path d="M136.366 686.404L120.45 668.376H126.552C128.347 668.376 129.935 667.38 130.692 665.775C131.449 664.173 131.2 662.336 130.038 660.983L114.473 642.876H120.229C122.042 642.876 123.675 641.811 124.385 640.165C125.086 638.545 124.755 636.661 123.54 635.368L101.572 611.964C100.371 610.679 98.1295 610.679 96.9262 611.964L74.9564 635.368C73.7411 636.661 73.4124 638.545 74.1117 640.165C74.8209 641.811 76.4565 642.876 78.2694 642.876H84.0248L68.4579 660.987C67.3004 662.338 67.0514 664.173 67.8064 665.777C68.5634 667.38 70.1492 668.376 71.9462 668.376H78.0483L62.1327 686.404C60.9374 687.756 60.6664 689.609 61.4234 691.237C62.1705 692.841 63.8141 693.876 65.609 693.876H92.8741V698.747L86.8398 708.39C85.7799 710.509 87.3219 713.003 89.6906 713.003H108.808C111.176 713.003 112.718 710.509 111.658 708.39L105.624 698.747V693.876H132.889C134.684 693.876 136.328 692.841 137.075 691.237C137.832 689.609 137.561 687.756 136.366 686.404Z" fill="#1A5C0F"/>
<path d="M326.366 841.404L310.45 823.376H316.552C318.347 823.376 319.935 822.38 320.692 820.775C321.449 819.173 321.2 817.336 320.038 815.983L304.473 797.876H310.229C312.042 797.876 313.675 796.811 314.385 795.165C315.086 793.545 314.755 791.661 313.54 790.368L291.572 766.964C290.371 765.679 288.13 765.679 286.926 766.964L264.956 790.368C263.741 791.661 263.412 793.545 264.112 795.165C264.821 796.811 266.456 797.876 268.269 797.876H274.025L258.458 815.987C257.3 817.338 257.051 819.173 257.806 820.777C258.563 822.38 260.149 823.376 261.946 823.376H268.048L252.133 841.404C250.937 842.756 250.666 844.609 251.423 846.237C252.171 847.841 253.814 848.876 255.609 848.876H282.874V853.747L276.84 863.39C275.78 865.509 277.322 868.003 279.691 868.003H298.808C301.176 868.003 302.718 865.509 301.658 863.39L295.624 853.747V848.876H322.889C324.684 848.876 326.328 847.841 327.075 846.237C327.832 844.609 327.561 842.756 326.366 841.404Z" fill="#1A5C0F"/>
<path d="M674.366 838.404L658.45 820.376H664.552C666.347 820.376 667.935 819.38 668.692 817.775C669.449 816.173 669.2 814.336 668.038 812.983L652.473 794.876H658.229C660.042 794.876 661.675 793.811 662.385 792.165C663.086 790.545 662.755 788.661 661.54 787.368L639.572 763.964C638.371 762.679 636.13 762.679 634.926 763.964L612.956 787.368C611.741 788.661 611.412 790.545 612.112 792.165C612.821 793.811 614.456 794.876 616.269 794.876H622.025L606.458 812.987C605.3 814.338 605.051 816.173 605.806 817.777C606.563 819.38 608.149 820.376 609.946 820.376H616.048L600.133 838.404C598.937 839.756 598.666 841.609 599.423 843.237C600.171 844.841 601.814 845.876 603.609 845.876H630.874V850.747L624.84 860.39C623.78 862.509 625.322 865.003 627.691 865.003H646.808C649.176 865.003 650.718 862.509 649.658 860.39L643.624 850.747V845.876H670.889C672.684 845.876 674.328 844.841 675.075 843.237C675.832 841.609 675.561 839.756 674.366 838.404Z" fill="#1A5C0F"/>
<path d="M386.366 610.404L370.45 592.376H376.552C378.347 592.376 379.935 591.38 380.692 589.775C381.449 588.173 381.2 586.336 380.038 584.983L364.473 566.876H370.229C372.042 566.876 373.675 565.811 374.385 564.165C375.086 562.545 374.755 560.661 373.54 559.368L351.572 535.964C350.371 534.679 348.13 534.679 346.926 535.964L324.956 559.368C323.741 560.661 323.412 562.545 324.112 564.165C324.821 565.811 326.456 566.876 328.269 566.876H334.025L318.458 584.987C317.3 586.338 317.051 588.173 317.806 589.777C318.563 591.38 320.149 592.376 321.946 592.376H328.048L312.133 610.404C310.937 611.756 310.666 613.609 311.423 615.237C312.171 616.841 313.814 617.876 315.609 617.876H342.874V622.747L336.84 632.39C335.78 634.509 337.322 637.003 339.691 637.003H358.808C361.176 637.003 362.718 634.509 361.658 632.39L355.624 622.747V617.876H382.889C384.684 617.876 386.328 616.841 387.075 615.237C387.832 613.609 387.561 611.756 386.366 610.404Z" fill="#1A5C0F"/>
<path d="M866.366 652.404L850.45 634.376H856.552C858.347 634.376 859.935 633.38 860.692 631.775C861.449 630.173 861.2 628.336 860.038 626.983L844.473 608.876H850.229C852.042 608.876 853.675 607.811 854.385 606.165C855.086 604.545 854.755 602.661 853.54 601.368L831.572 577.964C830.371 576.679 828.13 576.679 826.926 577.964L804.956 601.368C803.741 602.661 803.412 604.545 804.112 606.165C804.821 607.811 806.456 608.876 808.269 608.876H814.025L798.458 626.987C797.3 628.338 797.051 630.173 797.806 631.777C798.563 633.38 800.149 634.376 801.946 634.376H808.048L792.133 652.404C790.937 653.756 790.666 655.609 791.423 657.237C792.171 658.841 793.814 659.876 795.609 659.876H822.874V664.747L816.84 674.39C815.78 676.509 817.322 679.003 819.691 679.003H838.808C841.176 679.003 842.718 676.509 841.658 674.39L835.624 664.747V659.876H862.889C864.684 659.876 866.328 658.841 867.075 657.237C867.832 655.609 867.561 653.756 866.366 652.404Z" fill="#1A5C0F"/>
<path d="M1411.12 767.402L1395.2 749.375H1401.3C1403.1 749.375 1404.69 748.379 1405.44 746.773C1406.2 745.172 1405.95 743.335 1404.79 741.982L1389.22 723.875H1394.98C1396.79 723.875 1398.43 722.809 1399.14 721.164C1399.84 719.544 1399.51 717.659 1398.29 716.366L1376.32 692.962C1375.12 691.677 1372.88 691.677 1371.68 692.962L1349.71 716.366C1348.49 717.659 1348.16 719.544 1348.86 721.164C1349.57 722.809 1351.21 723.875 1353.02 723.875H1358.78L1343.21 741.986C1342.05 743.337 1341.8 745.172 1342.56 746.775C1343.31 748.379 1344.9 749.375 1346.7 749.375H1352.8L1336.88 767.402C1335.69 768.755 1335.42 770.608 1336.17 772.235C1336.92 773.839 1338.57 774.875 1340.36 774.875H1367.63V779.746L1361.59 789.388C1360.53 791.508 1362.07 794.002 1364.44 794.002H1383.56C1385.93 794.002 1387.47 791.508 1386.41 789.388L1380.38 779.746V774.875H1407.64C1409.44 774.875 1411.08 773.839 1411.83 772.235C1412.58 770.608 1412.31 768.755 1411.12 767.402Z" fill="black"/>
<rect x="955" y="59" width="122" height="661" fill="#C75959"/>
<rect x="817" y="250" width="122" height="556" transform="rotate(-90 817 250)" fill="#C75959"/>
<rect x="1148" y="83" width="242" height="213" rx="34" fill="#3C4D78"/>
<rect x="67" y="52" width="788" height="274" rx="12" fill="#D59393"/>
<ellipse cx="1077.5" cy="934" rx="269.5" ry="265" fill="#0DE108"/>
<path d="M946.116 838.402L930.201 820.375H936.303C938.098 820.375 939.686 819.379 940.443 817.773C941.2 816.172 940.951 814.335 939.789 812.982L924.224 794.875H929.98C931.793 794.875 933.426 793.809 934.135 792.164C934.837 790.544 934.506 788.659 933.291 787.366L911.323 763.962C910.122 762.677 907.88 762.677 906.677 763.962L884.707 787.366C883.492 788.659 883.163 790.544 883.863 792.164C884.572 793.809 886.207 794.875 888.02 794.875H893.776L878.209 812.986C877.051 814.337 876.802 816.172 877.557 817.775C878.314 819.379 879.9 820.375 881.697 820.375H887.799L871.884 838.402C870.688 839.755 870.417 841.608 871.174 843.235C871.921 844.839 873.565 845.875 875.36 845.875H902.625V850.746L896.591 860.388C895.531 862.508 897.073 865.002 899.441 865.002H918.558C920.927 865.002 922.469 862.508 921.409 860.388L915.375 850.746V845.875H942.64C944.435 845.875 946.079 844.839 946.826 843.235C947.583 841.608 947.312 839.755 946.116 838.402Z" fill="#083401"/>
<path d="M1289.12 818.402L1273.2 800.375H1279.3C1281.1 800.375 1282.69 799.379 1283.44 797.773C1284.2 796.172 1283.95 794.335 1282.79 792.982L1267.22 774.875H1272.98C1274.79 774.875 1276.43 773.809 1277.14 772.164C1277.84 770.544 1277.51 768.659 1276.29 767.366L1254.32 743.962C1253.12 742.677 1250.88 742.677 1249.68 743.962L1227.71 767.366C1226.49 768.659 1226.16 770.544 1226.86 772.164C1227.57 773.809 1229.21 774.875 1231.02 774.875H1236.78L1221.21 792.986C1220.05 794.337 1219.8 796.172 1220.56 797.775C1221.31 799.379 1222.9 800.375 1224.7 800.375H1230.8L1214.88 818.402C1213.69 819.755 1213.42 821.608 1214.17 823.235C1214.92 824.839 1216.56 825.875 1218.36 825.875H1245.62V830.746L1239.59 840.388C1238.53 842.508 1240.07 845.002 1242.44 845.002H1261.56C1263.93 845.002 1265.47 842.508 1264.41 840.388L1258.37 830.746V825.875H1285.64C1287.44 825.875 1289.08 824.839 1289.83 823.235C1290.58 821.608 1290.31 819.755 1289.12 818.402Z" fill="#083401"/>
<path d="M1289.12 1042.4L1273.2 1024.38H1279.3C1281.1 1024.38 1282.69 1023.38 1283.44 1021.77C1284.2 1020.17 1283.95 1018.33 1282.79 1016.98L1267.22 998.875H1272.98C1274.79 998.875 1276.43 997.809 1277.14 996.164C1277.84 994.544 1277.51 992.659 1276.29 991.366L1254.32 967.962C1253.12 966.677 1250.88 966.677 1249.68 967.962L1227.71 991.366C1226.49 992.659 1226.16 994.544 1226.86 996.164C1227.57 997.809 1229.21 998.875 1231.02 998.875H1236.78L1221.21 1016.99C1220.05 1018.34 1219.8 1020.17 1220.56 1021.78C1221.31 1023.38 1222.9 1024.38 1224.7 1024.38H1230.8L1214.88 1042.4C1213.69 1043.76 1213.42 1045.61 1214.17 1047.24C1214.92 1048.84 1216.56 1049.88 1218.36 1049.88H1245.62V1054.75L1239.59 1064.39C1238.53 1066.51 1240.07 1069 1242.44 1069H1261.56C1263.93 1069 1265.47 1066.51 1264.41 1064.39L1258.37 1054.75V1049.88H1285.64C1287.44 1049.88 1289.08 1048.84 1289.83 1047.24C1290.58 1045.61 1290.31 1043.76 1289.12 1042.4Z" fill="#083401"/>
<circle cx="1252" cy="905" r="29" fill="#D9D9D9"/>
<path d="M961.116 1072.4L945.201 1054.38H951.303C953.098 1054.38 954.686 1053.38 955.443 1051.77C956.2 1050.17 955.951 1048.33 954.789 1046.98L939.224 1028.88H944.98C946.793 1028.88 948.426 1027.81 949.135 1026.16C949.837 1024.54 949.506 1022.66 948.291 1021.37L926.323 997.962C925.122 996.677 922.88 996.677 921.677 997.962L899.707 1021.37C898.492 1022.66 898.163 1024.54 898.863 1026.16C899.572 1027.81 901.207 1028.88 903.02 1028.88H908.776L893.209 1046.99C892.051 1048.34 891.802 1050.17 892.557 1051.78C893.314 1053.38 894.9 1054.38 896.697 1054.38H902.799L886.884 1072.4C885.688 1073.76 885.417 1075.61 886.174 1077.24C886.921 1078.84 888.565 1079.88 890.36 1079.88H917.625V1084.75L911.591 1094.39C910.531 1096.51 912.073 1099 914.441 1099H933.558C935.927 1099 937.469 1096.51 936.409 1094.39L930.375 1084.75V1079.88H957.64C959.435 1079.88 961.079 1078.84 961.826 1077.24C962.583 1075.61 962.312 1073.76 961.116 1072.4Z" fill="#083401"/>
<path d="M1128.12 1144.4L1112.2 1126.38H1118.3C1120.1 1126.38 1121.69 1125.38 1122.44 1123.77C1123.2 1122.17 1122.95 1120.33 1121.79 1118.98L1106.22 1100.88H1111.98C1113.79 1100.88 1115.43 1099.81 1116.14 1098.16C1116.84 1096.54 1116.51 1094.66 1115.29 1093.37L1093.32 1069.96C1092.12 1068.68 1089.88 1068.68 1088.68 1069.96L1066.71 1093.37C1065.49 1094.66 1065.16 1096.54 1065.86 1098.16C1066.57 1099.81 1068.21 1100.88 1070.02 1100.88H1075.78L1060.21 1118.99C1059.05 1120.34 1058.8 1122.17 1059.56 1123.78C1060.31 1125.38 1061.9 1126.38 1063.7 1126.38H1069.8L1053.88 1144.4C1052.69 1145.76 1052.42 1147.61 1053.17 1149.24C1053.92 1150.84 1055.56 1151.88 1057.36 1151.88H1084.62V1156.75L1078.59 1166.39C1077.53 1168.51 1079.07 1171 1081.44 1171H1100.56C1102.93 1171 1104.47 1168.51 1103.41 1166.39L1097.37 1156.75V1151.88H1124.64C1126.44 1151.88 1128.08 1150.84 1128.83 1149.24C1129.58 1147.61 1129.31 1145.76 1128.12 1144.4Z" fill="#083401"/>
<circle cx="1011" cy="795" r="29" fill="#D9D9D9"/>
<circle cx="1125" cy="795" r="29" fill="#D9D9D9"/>
<circle cx="1129" cy="905" r="29" fill="#D9D9D9"/>
<circle cx="1129" cy="1005" r="29" fill="#D9D9D9"/>
<circle cx="1016" cy="1005" r="29" fill="#D9D9D9"/>
<circle cx="128" cy="1169" r="29" fill="#D9D9D9"/>
<circle cx="329" cy="1169" r="29" fill="#D9D9D9"/>
<circle cx="495" cy="1161" r="29" fill="#D9D9D9"/>
<circle cx="675" cy="1154" r="29" fill="#D9D9D9"/>
<circle cx="1187" cy="1111" r="29" fill="#D9D9D9"/>
<circle cx="1016" cy="1104" r="29" fill="#D9D9D9"/>
<circle cx="1016" cy="905" r="29" fill="#D9D9D9"/>
<circle cx="875" cy="934" r="29" fill="#D9D9D9"/>
<path d="M1095.12 704.402L1079.2 686.375H1085.3C1087.1 686.375 1088.69 685.379 1089.44 683.773C1090.2 682.172 1089.95 680.335 1088.79 678.982L1073.22 660.875H1078.98C1080.79 660.875 1082.43 659.809 1083.14 658.164C1083.84 656.544 1083.51 654.659 1082.29 653.366L1060.32 629.962C1059.12 628.677 1056.88 628.677 1055.68 629.962L1033.71 653.366C1032.49 654.659 1032.16 656.544 1032.86 658.164C1033.57 659.809 1035.21 660.875 1037.02 660.875H1042.78L1027.21 678.986C1026.05 680.337 1025.8 682.172 1026.56 683.775C1027.31 685.379 1028.9 686.375 1030.7 686.375H1036.8L1020.88 704.402C1019.69 705.755 1019.42 707.608 1020.17 709.235C1020.92 710.839 1022.56 711.875 1024.36 711.875H1051.62V716.746L1045.59 726.388C1044.53 728.508 1046.07 731.002 1048.44 731.002H1067.56C1069.93 731.002 1071.47 728.508 1070.41 726.388L1064.37 716.746V711.875H1091.64C1093.44 711.875 1095.08 710.839 1095.83 709.235C1096.58 707.608 1096.31 705.755 1095.12 704.402Z" fill="#083401"/>
<path d="M427.366 365.404L411.45 347.376H417.552C419.347 347.376 420.935 346.38 421.692 344.775C422.449 343.173 422.2 341.336 421.038 339.983L405.473 321.876H411.229C413.042 321.876 414.675 320.811 415.385 319.165C416.086 317.545 415.755 315.661 414.54 314.368L392.572 290.964C391.371 289.679 389.129 289.679 387.926 290.964L365.956 314.368C364.741 315.661 364.412 317.545 365.112 319.165C365.821 320.811 367.456 321.876 369.269 321.876H375.025L359.458 339.987C358.3 341.338 358.051 343.173 358.806 344.777C359.563 346.38 361.149 347.376 362.946 347.376H369.048L353.133 365.404C351.937 366.756 351.666 368.609 352.423 370.237C353.17 371.841 354.814 372.876 356.609 372.876H383.874V377.747L377.84 387.39C376.78 389.509 378.322 392.003 380.691 392.003H399.808C402.176 392.003 403.718 389.509 402.658 387.39L396.624 377.747V372.876H423.889C425.684 372.876 427.328 371.841 428.075 370.237C428.832 368.609 428.561 366.756 427.366 365.404Z" fill="#1A5C0F"/>
<path d="M579.366 365.404L563.45 347.376H569.552C571.347 347.376 572.935 346.38 573.692 344.775C574.449 343.173 574.2 341.336 573.038 339.983L557.473 321.876H563.229C565.042 321.876 566.675 320.811 567.385 319.165C568.086 317.545 567.755 315.661 566.54 314.368L544.572 290.964C543.371 289.679 541.129 289.679 539.926 290.964L517.956 314.368C516.741 315.661 516.412 317.545 517.112 319.165C517.821 320.811 519.456 321.876 521.269 321.876H527.025L511.458 339.987C510.3 341.338 510.051 343.173 510.806 344.777C511.563 346.38 513.149 347.376 514.946 347.376H521.048L505.133 365.404C503.937 366.756 503.666 368.609 504.423 370.237C505.17 371.841 506.814 372.876 508.609 372.876H535.874V377.747L529.84 387.39C528.78 389.509 530.322 392.003 532.691 392.003H551.808C554.176 392.003 555.718 389.509 554.658 387.39L548.624 377.747V372.876H575.889C577.684 372.876 579.328 371.841 580.075 370.237C580.832 368.609 580.561 366.756 579.366 365.404Z" fill="#1A5C0F"/>
<path d="M731.366 365.404L715.45 347.376H721.552C723.347 347.376 724.935 346.38 725.692 344.775C726.449 343.173 726.2 341.336 725.038 339.983L709.473 321.876H715.229C717.042 321.876 718.675 320.811 719.385 319.165C720.086 317.545 719.755 315.661 718.54 314.368L696.572 290.964C695.371 289.679 693.129 289.679 691.926 290.964L669.956 314.368C668.741 315.661 668.412 317.545 669.112 319.165C669.821 320.811 671.456 321.876 673.269 321.876H679.025L663.458 339.987C662.3 341.338 662.051 343.173 662.806 344.777C663.563 346.38 665.149 347.376 666.946 347.376H673.048L657.133 365.404C655.937 366.756 655.666 368.609 656.423 370.237C657.17 371.841 658.814 372.876 660.609 372.876H687.874V377.747L681.84 387.39C680.78 389.509 682.322 392.003 684.691 392.003H703.808C706.176 392.003 707.718 389.509 706.658 387.39L700.624 377.747V372.876H727.889C729.684 372.876 731.328 371.841 732.075 370.237C732.832 368.609 732.561 366.756 731.366 365.404Z" fill="#1A5C0F"/>
<path d="M883.366 365.404L867.45 347.376H873.552C875.347 347.376 876.935 346.38 877.692 344.775C878.449 343.173 878.2 341.336 877.038 339.983L861.473 321.876H867.229C869.042 321.876 870.675 320.811 871.384 319.165C872.086 317.545 871.755 315.661 870.54 314.368L848.572 290.964C847.371 289.679 845.129 289.679 843.926 290.964L821.956 314.368C820.741 315.661 820.412 317.545 821.112 319.165C821.821 320.811 823.456 321.876 825.269 321.876H831.025L815.458 339.987C814.3 341.338 814.051 343.173 814.806 344.777C815.563 346.38 817.149 347.376 818.946 347.376H825.048L809.133 365.404C807.937 366.756 807.666 368.609 808.423 370.237C809.17 371.841 810.814 372.876 812.609 372.876H839.874V377.747L833.84 387.39C832.78 389.509 834.322 392.003 836.691 392.003H855.808C858.176 392.003 859.718 389.509 858.658 387.39L852.624 377.747V372.876H879.889C881.684 372.876 883.328 371.841 884.075 370.237C884.832 368.609 884.561 366.756 883.366 365.404Z" fill="#1A5C0F"/>
<path d="M275.366 365.404L259.45 347.376H265.552C267.347 347.376 268.935 346.38 269.692 344.775C270.449 343.173 270.2 341.336 269.038 339.983L253.473 321.876H259.229C261.042 321.876 262.675 320.811 263.385 319.165C264.086 317.545 263.755 315.661 262.54 314.368L240.572 290.964C239.371 289.679 237.13 289.679 235.926 290.964L213.956 314.368C212.741 315.661 212.412 317.545 213.112 319.165C213.821 320.811 215.456 321.876 217.269 321.876H223.025L207.458 339.987C206.3 341.338 206.051 343.173 206.806 344.777C207.563 346.38 209.149 347.376 210.946 347.376H217.048L201.133 365.404C199.937 366.756 199.666 368.609 200.423 370.237C201.171 371.841 202.814 372.876 204.609 372.876H231.874V377.747L225.84 387.39C224.78 389.509 226.322 392.003 228.691 392.003H247.808C250.176 392.003 251.718 389.509 250.658 387.39L244.624 377.747V372.876H271.889C273.684 372.876 275.328 371.841 276.075 370.237C276.832 368.609 276.561 366.756 275.366 365.404Z" fill="#1A5C0F"/>
<path d="M110.366 365.404L94.45 347.376H100.552C102.347 347.376 103.935 346.38 104.692 344.775C105.449 343.173 105.2 341.336 104.038 339.983L88.4734 321.876H94.2288C96.0417 321.876 97.6753 320.811 98.3845 319.165C99.0858 317.545 98.7551 315.661 97.5398 314.368L75.572 290.964C74.3707 289.679 72.1295 289.679 70.9262 290.964L48.9564 314.368C47.7411 315.661 47.4124 317.545 48.1117 319.165C48.8209 320.811 50.4565 321.876 52.2694 321.876H58.0248L42.4579 339.987C41.3004 341.338 41.0514 343.173 41.8064 344.777C42.5634 346.38 44.1492 347.376 45.9462 347.376H52.0483L36.1327 365.404C34.9374 366.756 34.6664 368.609 35.4234 370.237C36.1705 371.841 37.8141 372.876 39.609 372.876H66.8741V377.747L60.8398 387.39C59.7799 389.509 61.3219 392.003 63.6906 392.003H82.8076C85.1763 392.003 86.7183 389.509 85.6584 387.39L79.6241 377.747V372.876H106.889C108.684 372.876 110.328 371.841 111.075 370.237C111.832 368.609 111.561 366.756 110.366 365.404Z" fill="#1A5C0F"/>
<path d="M745.097 250.475L743.51 269.831C743.104 274.839 735.647 274.15 736.053 269.228L737.284 254.154L732.226 254.438C733.469 256.985 734.171 259.839 734.171 262.866C734.171 267.936 732.189 272.55 728.966 275.971L724.13 271.135C731.254 263.297 725.742 250.562 715.024 250.562C711.837 250.562 708.934 251.78 706.756 253.761L701.92 248.925C704.627 246.378 708.085 244.606 711.936 243.979L721.201 233.433L715.96 230.382L709.61 236.042C705.919 239.34 700.923 233.766 704.627 230.456L712.994 222.987C714.2 221.904 715.96 221.732 717.362 222.544C717.362 222.544 734.503 232.498 734.527 232.523C736.521 233.766 737.074 236.953 735.278 238.995L728.092 247.178L741.147 246.452C743.424 246.316 745.282 248.224 745.097 250.475ZM737.111 231.526C740.569 231.526 743.374 228.721 743.374 225.263C743.374 221.805 740.569 219 737.111 219C733.654 219 730.848 221.805 730.848 225.263C730.848 228.721 733.654 231.526 737.111 231.526ZM715.037 275.171C705.119 275.171 699.361 264.023 704.861 255.963L699.976 251.078C697.416 254.314 695.891 258.412 695.891 262.854C695.891 278.936 714.434 287.636 726.825 277.927L721.94 273.042C719.971 274.383 717.596 275.171 715.037 275.171Z" fill="black"/>
<path d="M834.097 103.475L832.51 122.831C832.104 127.839 824.647 127.15 825.053 122.228L826.284 107.154L821.226 107.438C822.469 109.985 823.171 112.839 823.171 115.866C823.171 120.936 821.189 125.55 817.966 128.971L813.13 124.135C820.254 116.297 814.742 103.562 804.024 103.562C800.837 103.562 797.934 104.78 795.756 106.761L790.92 101.925C793.627 99.3779 797.085 97.6061 800.936 96.9785L810.201 86.4334L804.96 83.3818L798.61 89.042C794.919 92.3396 789.923 86.7656 793.627 83.4557L801.994 75.9867C803.2 74.9039 804.96 74.7316 806.362 75.5437C806.362 75.5437 823.503 85.4982 823.527 85.5229C825.521 86.7656 826.074 89.9525 824.278 91.9951L817.092 100.178L830.147 99.4518C832.424 99.3164 834.282 101.224 834.097 103.475ZM826.111 84.5262C829.569 84.5262 832.374 81.7207 832.374 78.2631C832.374 74.8055 829.569 72 826.111 72C822.654 72 819.848 74.8055 819.848 78.2631C819.848 81.7207 822.654 84.5262 826.111 84.5262ZM804.037 128.171C794.119 128.171 788.361 117.023 793.861 108.963L788.976 104.078C786.416 107.314 784.891 111.412 784.891 115.854C784.891 131.936 803.434 140.636 815.825 130.927L810.94 126.042C808.971 127.383 806.596 128.171 804.037 128.171Z" fill="black"/>
<path d="M740.097 103.475L738.51 122.831C738.104 127.839 730.647 127.15 731.053 122.228L732.284 107.154L727.226 107.438C728.469 109.985 729.171 112.839 729.171 115.866C729.171 120.936 727.189 125.55 723.966 128.971L719.13 124.135C726.254 116.297 720.742 103.562 710.024 103.562C706.837 103.562 703.934 104.78 701.756 106.761L696.92 101.925C699.627 99.3779 703.085 97.6061 706.936 96.9785L716.201 86.4334L710.96 83.3818L704.61 89.042C700.919 92.3396 695.923 86.7656 699.627 83.4557L707.994 75.9867C709.2 74.9039 710.96 74.7316 712.362 75.5437C712.362 75.5437 729.503 85.4982 729.527 85.5229C731.521 86.7656 732.074 89.9525 730.278 91.9951L723.092 100.178L736.147 99.4518C738.424 99.3164 740.282 101.224 740.097 103.475ZM732.111 84.5262C735.569 84.5262 738.374 81.7207 738.374 78.2631C738.374 74.8055 735.569 72 732.111 72C728.654 72 725.848 74.8055 725.848 78.2631C725.848 81.7207 728.654 84.5262 732.111 84.5262ZM710.037 128.171C700.119 128.171 694.361 117.023 699.861 108.963L694.976 104.078C692.416 107.314 690.891 111.412 690.891 115.854C690.891 131.936 709.434 140.636 721.825 130.927L716.94 126.042C714.971 127.383 712.596 128.171 710.037 128.171Z" fill="black"/>
<path d="M834.097 254.475L832.51 273.831C832.104 278.839 824.647 278.15 825.053 273.228L826.284 258.154L821.226 258.438C822.469 260.985 823.171 263.839 823.171 266.866C823.171 271.936 821.189 276.55 817.966 279.971L813.13 275.135C820.254 267.297 814.742 254.562 804.024 254.562C800.837 254.562 797.934 255.78 795.756 257.761L790.92 252.925C793.627 250.378 797.085 248.606 800.936 247.979L810.201 237.433L804.96 234.382L798.61 240.042C794.919 243.34 789.923 237.766 793.627 234.456L801.994 226.987C803.2 225.904 804.96 225.732 806.362 226.544C806.362 226.544 823.503 236.498 823.527 236.523C825.521 237.766 826.074 240.953 824.278 242.995L817.092 251.178L830.147 250.452C832.424 250.316 834.282 252.224 834.097 254.475ZM826.111 235.526C829.569 235.526 832.374 232.721 832.374 229.263C832.374 225.805 829.569 223 826.111 223C822.654 223 819.848 225.805 819.848 229.263C819.848 232.721 822.654 235.526 826.111 235.526ZM804.037 279.171C794.119 279.171 788.361 268.023 793.861 259.963L788.976 255.078C786.416 258.314 784.891 262.412 784.891 266.854C784.891 282.936 803.434 291.636 815.825 281.927L810.94 277.042C808.971 278.383 806.596 279.171 804.037 279.171Z" fill="black"/>
<path d="M103.313 102.781L103.312 238.219C103.312 248.415 111.585 256.688 121.781 256.688H257.219C267.415 256.688 275.688 248.415 275.688 238.219V102.781C275.688 92.585 267.415 84.3125 257.219 84.3125H121.781C111.585 84.3125 103.313 92.585 103.313 102.781ZM214.125 164.344V182.812H232.594C235.98 182.812 238.75 185.583 238.75 188.969V201.281C238.75 204.667 235.98 207.438 232.594 207.438H146.406C143.02 207.438 140.25 204.667 140.25 201.281V164.344C140.25 143.99 156.833 127.406 177.188 127.406C197.542 127.406 214.125 143.99 214.125 164.344ZM164.875 164.344V182.812H189.5V164.344C189.5 157.572 183.959 152.031 177.188 152.031C170.416 152.031 164.875 157.572 164.875 164.344Z" fill="black"/>
<path d="M300.312 102.781V238.219C300.312 248.415 308.585 256.688 318.781 256.688H454.219C464.415 256.688 472.688 248.415 472.688 238.219V102.781C472.688 92.585 464.415 84.3125 454.219 84.3125H318.781C308.585 84.3125 300.312 92.585 300.312 102.781ZM411.125 164.344V182.812H429.594C432.98 182.812 435.75 185.583 435.75 188.969V201.281C435.75 204.667 432.98 207.438 429.594 207.438H343.406C340.02 207.438 337.25 204.667 337.25 201.281V164.344C337.25 143.99 353.833 127.406 374.188 127.406C394.542 127.406 411.125 143.99 411.125 164.344ZM361.875 164.344V182.812H386.5V164.344C386.5 157.572 380.959 152.031 374.188 152.031C367.416 152.031 361.875 157.572 361.875 164.344Z" fill="black"/>
<path d="M503.312 102.781V238.219C503.312 248.415 511.585 256.688 521.781 256.688H657.219C667.415 256.688 675.688 248.415 675.688 238.219V102.781C675.688 92.585 667.415 84.3125 657.219 84.3125H521.781C511.585 84.3125 503.312 92.585 503.312 102.781ZM614.125 164.344V182.812H632.594C635.98 182.812 638.75 185.583 638.75 188.969V201.281C638.75 204.667 635.98 207.438 632.594 207.438H546.406C543.02 207.438 540.25 204.667 540.25 201.281V164.344C540.25 143.99 556.833 127.406 577.188 127.406C597.542 127.406 614.125 143.99 614.125 164.344ZM564.875 164.344V182.812H589.5V164.344C589.5 157.572 583.959 152.031 577.188 152.031C570.416 152.031 564.875 157.572 564.875 164.344Z" fill="black"/>
<path d="M0 1235C177.45 1303.46 416.5 1408.14 555 1321.57C693.5 1235 1440 1235 1440 1235V1485H0V1235Z" fill="#7098FF"/>
<path d="M1182.2 194.25V205H1177.04V175.76H1186.8C1189.76 175.76 1192.02 176.52 1193.6 178.039C1195.2 179.53 1196.01 181.536 1196.01 184.059V185.908C1196.01 187.571 1195.65 189.033 1194.93 190.294C1194.21 191.555 1193.18 192.516 1191.83 193.175C1194.18 197.188 1196.19 201.13 1197.85 205H1191.96C1190.53 201.417 1188.82 197.833 1186.85 194.25H1182.2ZM1186.8 180.49H1182.2V189.52H1186.8C1188.06 189.52 1189.02 189.205 1189.68 188.574C1190.37 187.915 1190.72 187.026 1190.72 185.908V184.059C1190.72 182.97 1190.37 182.11 1189.68 181.479C1189.02 180.82 1188.06 180.49 1186.8 180.49ZM1219.16 203.753C1217.66 204.355 1216.26 204.785 1214.94 205.043C1213.62 205.301 1212.38 205.43 1211.2 205.43C1207.96 205.43 1205.51 204.513 1203.85 202.678C1202.18 200.843 1201.35 198.407 1201.35 195.368V192.788C1201.35 190.753 1201.73 188.99 1202.47 187.499C1203.22 186.008 1204.28 184.847 1205.65 184.016C1207.03 183.185 1208.65 182.769 1210.51 182.769C1212.03 182.769 1213.45 183.084 1214.77 183.715C1216.12 184.317 1217.21 185.277 1218.04 186.596C1218.9 187.886 1219.33 189.549 1219.33 191.584C1219.33 192.186 1219.28 192.831 1219.2 193.519C1219.11 194.178 1218.97 194.881 1218.77 195.626H1206.13C1206.18 197.403 1206.63 198.736 1207.46 199.625C1208.29 200.514 1209.62 200.958 1211.46 200.958C1212.43 200.958 1213.44 200.843 1214.47 200.614C1215.53 200.385 1216.62 200.041 1217.74 199.582L1219.16 203.753ZM1210.51 186.94C1209.19 186.94 1208.16 187.37 1207.42 188.23C1206.7 189.061 1206.28 190.265 1206.17 191.842H1214.43C1214.45 191.699 1214.47 191.57 1214.47 191.455C1214.47 191.312 1214.47 191.183 1214.47 191.068C1214.47 189.692 1214.08 188.66 1213.31 187.972C1212.53 187.284 1211.6 186.94 1210.51 186.94ZM1228.81 192.831V195.368C1228.81 197.203 1229.14 198.579 1229.8 199.496C1230.46 200.413 1231.52 200.872 1232.98 200.872C1233.7 200.872 1234.5 200.786 1235.39 200.614C1236.3 200.413 1237.29 200.112 1238.35 199.711L1239.77 203.882C1238.48 204.398 1237.26 204.785 1236.12 205.043C1234.97 205.301 1233.84 205.43 1232.72 205.43C1229.85 205.43 1227.66 204.513 1226.14 202.678C1224.62 200.843 1223.86 198.407 1223.86 195.368V192.831C1223.86 189.764 1224.62 187.327 1226.14 185.521C1227.66 183.686 1229.85 182.769 1232.72 182.769C1233.81 182.769 1234.91 182.898 1236.03 183.156C1237.15 183.414 1238.33 183.787 1239.56 184.274L1238.14 188.531C1236.07 187.728 1234.35 187.327 1232.98 187.327C1231.52 187.327 1230.46 187.786 1229.8 188.703C1229.14 189.592 1228.81 190.968 1228.81 192.831ZM1260.85 203.753C1259.36 204.355 1257.96 204.785 1256.64 205.043C1255.32 205.301 1254.07 205.43 1252.9 205.43C1249.66 205.43 1247.21 204.513 1245.55 202.678C1243.88 200.843 1243.05 198.407 1243.05 195.368V192.788C1243.05 190.753 1243.42 188.99 1244.17 187.499C1244.91 186.008 1245.98 184.847 1247.35 184.016C1248.73 183.185 1250.35 182.769 1252.21 182.769C1253.73 182.769 1255.15 183.084 1256.47 183.715C1257.81 184.317 1258.9 185.277 1259.74 186.596C1260.6 187.886 1261.03 189.549 1261.03 191.584C1261.03 192.186 1260.98 192.831 1260.9 193.519C1260.81 194.178 1260.67 194.881 1260.47 195.626H1247.82C1247.88 197.403 1248.33 198.736 1249.16 199.625C1249.99 200.514 1251.32 200.958 1253.16 200.958C1254.13 200.958 1255.13 200.843 1256.17 200.614C1257.23 200.385 1258.32 200.041 1259.43 199.582L1260.85 203.753ZM1252.21 186.94C1250.89 186.94 1249.86 187.37 1249.11 188.23C1248.4 189.061 1247.98 190.265 1247.87 191.842H1256.12C1256.15 191.699 1256.17 191.57 1256.17 191.455C1256.17 191.312 1256.17 191.183 1256.17 191.068C1256.17 189.692 1255.78 188.66 1255.01 187.972C1254.23 187.284 1253.3 186.94 1252.21 186.94ZM1276.05 205.43C1275.34 205.43 1274.61 205.358 1273.86 205.215C1273.14 205.072 1272.41 204.871 1271.67 204.613V214.159H1266.72V183.199H1271.41V186.166C1272.76 184.819 1273.9 183.916 1274.85 183.457C1275.8 182.998 1276.78 182.769 1277.82 182.769C1280.2 182.769 1282.03 183.658 1283.32 185.435C1284.61 187.212 1285.26 189.706 1285.26 192.917V195.239C1285.26 198.364 1284.47 200.843 1282.89 202.678C1281.31 204.513 1279.03 205.43 1276.05 205.43ZM1276.48 187.37C1275.82 187.37 1275.12 187.571 1274.38 187.972C1273.66 188.345 1272.76 189.076 1271.67 190.165V200.141C1273.07 200.714 1274.36 201.001 1275.54 201.001C1277.2 201.001 1278.39 200.485 1279.11 199.453C1279.82 198.421 1280.18 197.016 1280.18 195.239V192.917C1280.18 190.996 1279.85 189.592 1279.19 188.703C1278.56 187.814 1277.66 187.37 1276.48 187.37ZM1304.11 204.269C1303.36 204.613 1302.5 204.885 1301.53 205.086C1300.55 205.315 1299.57 205.43 1298.56 205.43C1296.9 205.43 1295.57 205.086 1294.56 204.398C1293.56 203.71 1292.83 202.75 1292.37 201.517C1291.94 200.284 1291.72 198.88 1291.72 197.303V187.499H1288.2V183.199H1291.72V177.523H1296.67V183.199H1303.46V187.499H1296.67V197.303C1296.67 198.622 1296.91 199.539 1297.4 200.055C1297.92 200.542 1298.65 200.786 1299.59 200.786C1300.05 200.786 1300.54 200.743 1301.06 200.657C1301.6 200.542 1302.2 200.356 1302.86 200.098L1304.11 204.269ZM1313.16 179.071H1307.96V173.954H1313.16V179.071ZM1313.03 205H1308.08V183.199H1313.03V205ZM1337.69 192.788V195.368C1337.69 198.407 1336.86 200.843 1335.19 202.678C1333.53 204.513 1331.18 205.43 1328.14 205.43C1325.1 205.43 1322.75 204.513 1321.09 202.678C1319.43 200.843 1318.6 198.407 1318.6 195.368V192.788C1318.6 189.749 1319.41 187.327 1321.05 185.521C1322.71 183.686 1325.07 182.769 1328.14 182.769C1331.21 182.769 1333.56 183.686 1335.19 185.521C1336.86 187.327 1337.69 189.749 1337.69 192.788ZM1332.61 192.788C1332.61 191.039 1332.23 189.678 1331.45 188.703C1330.68 187.7 1329.57 187.198 1328.14 187.198C1326.71 187.198 1325.6 187.7 1324.83 188.703C1324.06 189.678 1323.67 191.039 1323.67 192.788V195.368C1323.67 197.117 1324.06 198.493 1324.83 199.496C1325.6 200.499 1326.71 201.001 1328.14 201.001C1329.57 201.001 1330.68 200.499 1331.45 199.496C1332.23 198.493 1332.61 197.117 1332.61 195.368V192.788ZM1353.9 187.37C1353.18 187.37 1352.36 187.542 1351.44 187.886C1350.53 188.23 1349.44 188.904 1348.18 189.907V205H1343.23V183.199H1347.92V186.123C1349.27 184.948 1350.54 184.102 1351.75 183.586C1352.95 183.041 1354.17 182.769 1355.4 182.769C1357.49 182.769 1359.08 183.443 1360.17 184.79C1361.26 186.109 1361.81 187.972 1361.81 190.38V205H1356.86V190.982C1356.86 188.574 1355.87 187.37 1353.9 187.37Z" fill="white"/>
<path d="M1246 448.565L1258.77 441.255C1258.23 440.768 1257.68 440.266 1257.14 439.75C1256.59 439.263 1256.03 438.747 1255.46 438.202H1246V433.042H1275.24V438.202H1261.35C1263.85 440.381 1266.21 442.244 1268.45 443.792C1270.71 445.34 1272.98 446.673 1275.24 447.791V453.424C1272.77 452.191 1270.44 450.873 1268.23 449.468C1266.05 448.092 1264.03 446.63 1262.17 445.082L1246 454.8V448.565ZM1271.93 463.968V458.765H1277.05V463.968H1271.93ZM1246 463.839V458.894H1267.8V463.839H1246ZM1246.73 483.767C1246.39 483.022 1246.11 482.162 1245.91 481.187C1245.68 480.212 1245.57 479.223 1245.57 478.22C1245.57 476.557 1245.91 475.224 1246.6 474.221C1247.29 473.218 1248.25 472.487 1249.48 472.028C1250.72 471.598 1252.12 471.383 1253.7 471.383H1263.5V467.857H1267.8V471.383H1273.48V476.328H1267.8V483.122H1263.5V476.328H1253.7C1252.38 476.328 1251.46 476.572 1250.95 477.059C1250.46 477.575 1250.21 478.306 1250.21 479.252C1250.21 479.711 1250.26 480.198 1250.34 480.714C1250.46 481.259 1250.64 481.861 1250.9 482.52L1246.73 483.767ZM1258.17 491.527H1255.63C1253.8 491.527 1252.42 491.856 1251.5 492.516C1250.59 493.175 1250.13 494.236 1250.13 495.698C1250.13 496.414 1250.21 497.217 1250.39 498.106C1250.59 499.023 1250.89 500.012 1251.29 501.073L1247.12 502.492C1246.6 501.202 1246.22 499.983 1245.96 498.837C1245.7 497.69 1245.57 496.558 1245.57 495.44C1245.57 492.573 1246.49 490.38 1248.32 488.861C1250.16 487.341 1252.59 486.582 1255.63 486.582H1258.17C1261.24 486.582 1263.67 487.341 1265.48 488.861C1267.31 490.38 1268.23 492.573 1268.23 495.44C1268.23 496.529 1268.1 497.633 1267.84 498.751C1267.59 499.869 1267.21 501.044 1266.73 502.277L1262.47 500.858C1263.27 498.794 1263.67 497.074 1263.67 495.698C1263.67 494.236 1263.21 493.175 1262.3 492.516C1261.41 491.856 1260.03 491.527 1258.17 491.527ZM1263.63 517.681C1263.63 516.964 1263.46 516.147 1263.11 515.23C1262.77 514.313 1262.1 513.223 1261.09 511.962H1246V507.017H1277.82V511.962H1265.09C1266.21 513.281 1267.01 514.513 1267.5 515.66C1267.99 516.807 1268.23 517.982 1268.23 519.186C1268.23 521.279 1267.56 522.87 1266.21 523.959C1264.89 525.048 1263.03 525.593 1260.62 525.593H1246V520.648H1260.02C1262.43 520.648 1263.63 519.659 1263.63 517.681ZM1247.25 548.683C1246.65 547.193 1246.22 545.788 1245.96 544.469C1245.7 543.151 1245.57 541.904 1245.57 540.728C1245.57 537.489 1246.49 535.038 1248.32 533.375C1250.16 531.713 1252.59 530.881 1255.63 530.881H1258.21C1260.25 530.881 1262.01 531.254 1263.5 531.999C1264.99 532.745 1266.15 533.805 1266.98 535.181C1267.82 536.557 1268.23 538.177 1268.23 540.04C1268.23 541.56 1267.92 542.979 1267.29 544.297C1266.68 545.645 1265.72 546.734 1264.4 547.565C1263.11 548.425 1261.45 548.855 1259.42 548.855C1258.81 548.855 1258.17 548.812 1257.48 548.726C1256.82 548.64 1256.12 548.497 1255.37 548.296V535.654C1253.6 535.712 1252.26 536.156 1251.38 536.987C1250.49 537.819 1250.04 539.152 1250.04 540.986C1250.04 541.961 1250.16 542.964 1250.39 543.996C1250.62 545.057 1250.96 546.146 1251.42 547.264L1247.25 548.683ZM1264.06 540.04C1264.06 538.722 1263.63 537.69 1262.77 536.944C1261.94 536.228 1260.73 535.812 1259.16 535.697V543.953C1259.3 543.982 1259.43 543.996 1259.55 543.996C1259.69 543.996 1259.82 543.996 1259.93 543.996C1261.31 543.996 1262.34 543.609 1263.03 542.835C1263.72 542.061 1264.06 541.13 1264.06 540.04ZM1263.63 565.216C1263.63 564.5 1263.46 563.683 1263.11 562.765C1262.77 561.848 1262.1 560.759 1261.09 559.497H1246V554.552H1267.8V559.239H1264.88C1266.05 560.587 1266.9 561.862 1267.41 563.066C1267.96 564.27 1268.23 565.489 1268.23 566.721C1268.23 568.814 1267.56 570.405 1266.21 571.494C1264.89 572.584 1263.03 573.128 1260.62 573.128H1246V568.183H1260.02C1262.43 568.183 1263.63 567.194 1263.63 565.216Z" fill="white"/>
</svg>
